HIERARCHY
ROOT Hips
{
	OFFSET 0.000000 71.427986 0.000000
	CHANNELS 6 Xposition Yposition Zposition Xrotation Yrotation Zrotation
	JOINT Pelvis
	{
		OFFSET 0.000000 0.000000 0.000000
		CHANNELS 3 Xrotation Yrotation Zrotation
		JOINT LeftUpLeg
		{
			OFFSET 6.797100 -2.508499 -1.318700
			CHANNELS 3 Xrotation Yrotation Zrotation
			JOINT LeftLeg
			{
				OFFSET 0.069008 -29.241863 0.690200
				CHANNELS 3 Xrotation Yrotation Zrotation
				JOINT LeftFoot
				{
					OFFSET -0.069008 -29.568123 -0.266800
					CHANNELS 3 Xrotation Yrotation Zrotation
					JOINT LeftToeBase
					{
						OFFSET 3.145500 -8.631000 16.059900
						CHANNELS 3 Xrotation Yrotation Zrotation
						End Site
						{
							OFFSET 0.000000 18.501587 0.000000
						}
					}
				}
			}
			JOINT Left_ShortSleeve
			{
				OFFSET 0.265923 -10.480953 1.153800
				CHANNELS 3 Xrotation Yrotation Zrotation
				End Site
				{
					OFFSET 1.725763 19.823879 0.000000
				}
			}
		}
		JOINT RightUpLeg
		{
			OFFSET -6.797100 -2.508499 -1.318700
			CHANNELS 3 Xrotation Yrotation Zrotation
			JOINT RightLeg
			{
				OFFSET -0.082453 -29.241932 0.688000
				CHANNELS 3 Xrotation Yrotation Zrotation
				JOINT RightFoot
				{
					OFFSET 0.082453 -29.568058 -0.264600
					CHANNELS 3 Xrotation Yrotation Zrotation
					JOINT RightToeBase
					{
						OFFSET -3.115300 -8.682800 16.113400
						CHANNELS 3 Xrotation Yrotation Zrotation
						End Site
						{
							OFFSET 0.000000 18.567114 0.000000
						}
					}
				}
			}
			JOINT Right_ShortSleeve
			{
				OFFSET -0.265923 -10.480953 1.153800
				CHANNELS 3 Xrotation Yrotation Zrotation
				End Site
				{
					OFFSET -1.725766 19.823910 0.000000
				}
			}
		}
	}
	JOINT Spine
	{
		OFFSET 0.000000 13.368103 0.470500
		CHANNELS 3 Xrotation Yrotation Zrotation
		JOINT Spine1
		{
			OFFSET 0.147000 13.837402 0.538800
			CHANNELS 3 Xrotation Yrotation Zrotation
			JOINT Spine2
			{
				OFFSET 0.168000 16.242897 -1.435500
				CHANNELS 3 Xrotation Yrotation Zrotation
				JOINT Neck
				{
					OFFSET 0.217200 18.631500 -1.679100
					CHANNELS 3 Xrotation Yrotation Zrotation
					JOINT Head
					{
						OFFSET 0.000000 6.599396 1.385900
						CHANNELS 3 Xrotation Yrotation Zrotation
						JOINT Hat
						{
							OFFSET -0.532200 27.220596 -10.096100
							CHANNELS 3 Xrotation Yrotation Zrotation
							End Site
							{
								OFFSET 0.000000 22.029861 0.000000
							}
						}
						JOINT HairD
						{
							OFFSET -10.777400 17.437393 -1.325900
							CHANNELS 3 Xrotation Yrotation Zrotation
							JOINT HairD1
							{
								OFFSET -3.290299 -11.051193 1.062200
								CHANNELS 3 Xrotation Yrotation Zrotation
								End Site
								{
									OFFSET 0.000000 11.579437 0.000000
								}
							}
						}
						JOINT HairB
						{
							OFFSET -10.777400 17.437393 1.467900
							CHANNELS 3 Xrotation Yrotation Zrotation
							JOINT HairB1
							{
								OFFSET -1.561200 -12.956299 3.590200
								CHANNELS 3 Xrotation Yrotation Zrotation
								End Site
								{
									OFFSET 0.000000 13.534866 0.000000
								}
							}
						}
						JOINT HairA
						{
							OFFSET 9.713100 17.437393 1.467900
							CHANNELS 3 Xrotation Yrotation Zrotation
							JOINT HairA1
							{
								OFFSET 1.561200 -12.956299 3.590200
								CHANNELS 3 Xrotation Yrotation Zrotation
								End Site
								{
									OFFSET 0.000000 13.534866 0.000000
								}
							}
						}
						JOINT HairC
						{
							OFFSET 9.713100 17.437393 -1.325900
							CHANNELS 3 Xrotation Yrotation Zrotation
							JOINT HairC1
							{
								OFFSET 3.290300 -11.051193 1.062200
								CHANNELS 3 Xrotation Yrotation Zrotation
								End Site
								{
									OFFSET 0.000000 11.579437 0.000000
								}
							}
						}
					}
				}
				JOINT LeftShoulder
				{
					OFFSET 5.101800 15.108002 -2.763700
					CHANNELS 3 Xrotation Yrotation Zrotation
					JOINT LeftArm
					{
						OFFSET 9.825497 2.506317 -1.597400
						CHANNELS 3 Xrotation Yrotation Zrotation
						JOINT LeftForeArm
						{
							OFFSET 21.966244 0.000000 0.000000
							CHANNELS 3 Xrotation Yrotation Zrotation
							JOINT LeftHand
							{
								OFFSET 33.879036 0.000000 0.000000
								CHANNELS 3 Xrotation Yrotation Zrotation
								JOINT LeftHandThumb1
								{
									OFFSET 6.715286 -2.359680 3.363841
									CHANNELS 3 Xrotation Yrotation Zrotation
									JOINT LeftHandThumb2
									{
										OFFSET 2.507072 -1.447464 1.447461
										CHANNELS 3 Xrotation Yrotation Zrotation
										JOINT LeftHandThumb3
										{
											OFFSET 2.898338 -1.673355 1.673357
											CHANNELS 3 Xrotation Yrotation Zrotation
											End Site
											{
												OFFSET -0.295959 3.727692 -0.131651
											}
										}
									}
								}
								JOINT LeftHandIndex1
								{
									OFFSET 14.190811 -0.254547 3.840278
									CHANNELS 3 Xrotation Yrotation Zrotation
									JOINT LeftHandIndex2
									{
										OFFSET 3.551727 0.000000 -0.000000
										CHANNELS 3 Xrotation Yrotation Zrotation
										JOINT LeftHandIndex3
										{
											OFFSET 2.894196 0.000000 0.000000
											CHANNELS 3 Xrotation Yrotation Zrotation
											End Site
											{
												OFFSET -1.000603 2.690872 0.366626
											}
										}
									}
								}
								JOINT LeftHandMiddle1
								{
									OFFSET 13.776489 0.000000 0.000000
									CHANNELS 3 Xrotation Yrotation Zrotation
									JOINT LeftHandMiddle2
									{
										OFFSET 3.438232 0.000000 0.000000
										CHANNELS 3 Xrotation Yrotation Zrotation
										JOINT LeftHandMiddle3
										{
											OFFSET 3.691551 0.000000 0.000000
											CHANNELS 3 Xrotation Yrotation Zrotation
											End Site
											{
												OFFSET -1.082298 3.499527 0.457670
											}
										}
									}
								}
								JOINT LeftHandRing1
								{
									OFFSET 13.966164 -0.268127 -3.067488
									CHANNELS 3 Xrotation Yrotation Zrotation
									JOINT LeftHandRing2
									{
										OFFSET 3.162567 0.000000 0.000000
										CHANNELS 3 Xrotation Yrotation Zrotation
										JOINT LeftHandRing3
										{
											OFFSET 3.324348 0.000000 0.000000
											CHANNELS 3 Xrotation Yrotation Zrotation
											End Site
											{
												OFFSET -0.861900 3.184998 0.405154
											}
										}
									}
								}
								JOINT LeftHandPinky1
								{
									OFFSET 13.131393 -0.168503 -5.746925
									CHANNELS 3 Xrotation Yrotation Zrotation
									JOINT LeftHandPinky2
									{
										OFFSET 2.849182 0.000000 0.000000
										CHANNELS 3 Xrotation Yrotation Zrotation
										JOINT LeftHandPinky3
										{
											OFFSET 2.805038 0.000000 0.000000
											CHANNELS 3 Xrotation Yrotation Zrotation
											End Site
											{
												OFFSET -0.882500 2.642609 0.325652
											}
										}
									}
								}
							}
							JOINT Left_Sleeve
							{
								OFFSET 6.592125 -0.646545 0.805568
								CHANNELS 3 Xrotation Yrotation Zrotation
								End Site
								{
									OFFSET -0.000179 20.275787 -0.000000
								}
							}
						}
					}
				}
				JOINT RightShoulder
				{
					OFFSET -5.731700 15.108002 -2.763700
					CHANNELS 3 Xrotation Yrotation Zrotation
					JOINT RightArm
					{
						OFFSET -9.825497 2.506317 -1.597400
						CHANNELS 3 Xrotation Yrotation Zrotation
						JOINT RightForeArm
						{
							OFFSET -21.966242 0.000000 0.000000
							CHANNELS 3 Xrotation Yrotation Zrotation
							JOINT RightHand
							{
								OFFSET -33.879032 0.000000 0.000000
								CHANNELS 3 Xrotation Yrotation Zrotation
								JOINT RightHandThumb1
								{
									OFFSET -6.715286 -2.359680 3.363841
									CHANNELS 3 Xrotation Yrotation Zrotation
									JOINT RightHandThumb2
									{
										OFFSET -2.507072 -1.447464 1.447461
										CHANNELS 3 Xrotation Yrotation Zrotation
										JOINT RightHandThumb3
										{
											OFFSET -2.898338 -1.673355 1.673357
											CHANNELS 3 Xrotation Yrotation Zrotation
											End Site
											{
												OFFSET 0.295959 3.727692 -0.131651
											}
										}
									}
								}
								JOINT RightHandIndex1
								{
									OFFSET -14.190811 -0.254547 3.840278
									CHANNELS 3 Xrotation Yrotation Zrotation
									JOINT RightHandIndex2
									{
										OFFSET -3.551727 0.000000 -0.000000
										CHANNELS 3 Xrotation Yrotation Zrotation
										JOINT RightHandIndex3
										{
											OFFSET -2.894196 0.000000 0.000000
											CHANNELS 3 Xrotation Yrotation Zrotation
											End Site
											{
												OFFSET 1.000603 2.690872 0.366626
											}
										}
									}
								}
								JOINT RightHandMiddle1
								{
									OFFSET -13.776489 0.000000 0.000000
									CHANNELS 3 Xrotation Yrotation Zrotation
									JOINT RightHandMiddle2
									{
										OFFSET -3.438232 0.000000 0.000000
										CHANNELS 3 Xrotation Yrotation Zrotation
										JOINT RightHandMiddle3
										{
											OFFSET -3.691551 0.000000 0.000000
											CHANNELS 3 Xrotation Yrotation Zrotation
											End Site
											{
												OFFSET 1.082298 3.499527 0.457670
											}
										}
									}
								}
								JOINT RightHandRing1
								{
									OFFSET -13.966164 -0.268127 -3.067488
									CHANNELS 3 Xrotation Yrotation Zrotation
									JOINT RightHandRing2
									{
										OFFSET -3.162567 0.000000 0.000000
										CHANNELS 3 Xrotation Yrotation Zrotation
										JOINT RightHandRing3
										{
											OFFSET -3.324348 0.000000 0.000000
											CHANNELS 3 Xrotation Yrotation Zrotation
											End Site
											{
												OFFSET 0.861900 3.184998 0.405154
											}
										}
									}
								}
								JOINT RightHandPinky1
								{
									OFFSET -13.131393 -0.168503 -5.746925
									CHANNELS 3 Xrotation Yrotation Zrotation
									JOINT RightHandPinky2
									{
										OFFSET -2.849182 0.000000 0.000000
										CHANNELS 3 Xrotation Yrotation Zrotation
										JOINT RightHandPinky3
										{
											OFFSET -2.805038 0.000000 0.000000
											CHANNELS 3 Xrotation Yrotation Zrotation
											End Site
											{
												OFFSET 0.882500 2.642609 0.325652
											}
										}
									}
								}
							}
							JOINT Right_Sleeve
							{
								OFFSET -6.592125 -0.646545 0.805568
								CHANNELS 3 Xrotation Yrotation Zrotation
								End Site
								{
									OFFSET 0.000179 20.275787 -0.000000
								}
							}
						}
					}
				}
				JOINT Bind_Right_JacketString
				{
					OFFSET -3.534800 11.969597 7.200700
					CHANNELS 3 Xrotation Yrotation Zrotation
					JOINT Bind_Right_JacketString1
					{
						OFFSET -0.319900 -6.102600 2.794100
						CHANNELS 3 Xrotation Yrotation Zrotation
						End Site
						{
							OFFSET 0.000000 6.719452 0.000000
						}
					}
				}
				JOINT Bind_Left_JacketString
				{
					OFFSET 2.904800 11.969597 7.200700
					CHANNELS 3 Xrotation Yrotation Zrotation
					JOINT Bind_Left_JacketString1
					{
						OFFSET 0.364800 -5.904503 3.186800
						CHANNELS 3 Xrotation Yrotation Zrotation
						End Site
						{
							OFFSET 0.000000 6.719513 0.000000
						}
					}
				}
				JOINT HairE
				{
					OFFSET 5.915200 17.612701 -11.592200
					CHANNELS 3 Xrotation Yrotation Zrotation
					JOINT HairE1
					{
						OFFSET 0.289200 -7.171898 -1.284500
						CHANNELS 3 Xrotation Yrotation Zrotation
						End Site
						{
							OFFSET 0.000000 7.291756 0.000000
						}
					}
				}
				JOINT HairF
				{
					OFFSET -0.864800 17.612701 -11.592200
					CHANNELS 3 Xrotation Yrotation Zrotation
					JOINT HairF1
					{
						OFFSET 0.000000 -14.087097 -2.127501
						CHANNELS 3 Xrotation Yrotation Zrotation
						End Site
						{
							OFFSET 0.000000 14.246841 0.000000
						}
					}
				}
				JOINT HairG
				{
					OFFSET -8.087700 17.612701 -11.592200
					CHANNELS 3 Xrotation Yrotation Zrotation
					JOINT HairG1
					{
						OFFSET -0.293600 -6.081398 -0.910100
						CHANNELS 3 Xrotation Yrotation Zrotation
						End Site
						{
							OFFSET 0.000000 6.156120 0.000000
						}
					}
				}
			}
		}
	}
	JOINT Pouch
	{
		OFFSET 0.000000 4.394501 10.847300
		CHANNELS 3 Xrotation Yrotation Zrotation
		End Site
		{
			OFFSET 0.000000 21.880577 0.000000
		}
	}
	JOINT Bag
	{
		OFFSET -13.229000 4.813004 -0.593300
		CHANNELS 3 Xrotation Yrotation Zrotation
		End Site
		{
			OFFSET 0.000000 21.880577 0.000000
		}
	}
	JOINT OccupyGuyFacialAnim_Joint
	{
		OFFSET 1.000000 -70.206398 -1.655000
		CHANNELS 3 Xrotation Yrotation Zrotation
		End Site
		{
			OFFSET 0.000000 21.880577 0.000000
		}
	}
}
MOTION
Frames: 4
Frame Time: 0.033333
3.152325 72.584290 61.941200 -5.374916 -11.122888 -0.493907 0.000000 0.000000 -0.000000 -16.456410 5.405470 17.160490 33.081700 -34.486667 -1.516194 8.189211 -3.751947 -3.277893 0.000000 0.000001 0.000000 -0.000002 0.000000 -0.000001 -14.728285 -11.372909 -5.223930 40.211929 10.796878 1.650877 -0.156493 -0.475962 -5.058173 -0.000001 0.000000 0.000000 -0.000000 -0.000001 -0.000000 9.589378 0.554605 0.042282 -4.195014 1.119484 0.041247 -4.141538 1.024685 0.009139 1.758837 7.677343 5.282079 1.473626 4.645712 -3.728446 -0.000000 0.000000 -0.000000 -0.000000 0.000000 -0.000000 -0.000000 0.000000 -0.000000 -0.000000 0.000000 -0.000000 0.000000 -0.000000 -0.000000 -0.000000 0.000000 -0.000000 0.000000 -0.000000 -0.000000 -0.000000 0.000000 -0.000000 -0.000000 0.000000 -0.000000 2.009755 -5.026188 -0.874864 0.576236 4.628634 -76.687964 9.457416 -10.618755 0.208901 -12.670215 -1.466256 -0.649465 13.787938 -2.486867 15.949994 -8.315852 19.597570 -6.809597 0.000000 0.000001 0.000001 1.947911 1.959459 2.070352 -2.045056 2.285991 -8.573119 0.000001 0.000001 -0.000002 -1.992277 5.310808 -7.373758 0.159551 4.792243 -21.019658 -0.000000 -0.000001 -0.000001 -4.577510 10.291346 -5.985916 3.702040 3.899199 -28.440624 -0.000002 0.000001 -0.000001 -5.724733 11.718864 -16.406630 10.046839 2.603805 -28.637014 -0.000000 0.000000 0.000001 0.000002 0.000000 -0.000000 2.046963 4.289522 3.223580 -0.005058 -2.010959 71.278563 2.999456 18.840812 -1.868314 -0.730931 4.312832 -2.918378 14.729916 0.790884 -15.034778 -4.660501 -26.568724 6.967301 -0.000000 0.000000 0.000000 2.200830 -3.319758 8.698418 -2.116059 -2.381323 19.068145 -0.000001 -0.000002 0.000002 -1.998370 -5.532881 15.797218 0.213178 -4.976205 29.262340 -0.000000 0.000001 0.000001 -4.819419 -10.165161 13.289177 3.895617 -4.003346 35.763666 0.000001 -0.000002 -0.000000 -6.178066 -11.453286 23.919352 10.470169 -2.597584 35.730461 -0.000001 0.000002 0.000001 0.000000 -0.000000 -0.000001 -0.000000 0.000001 -0.000000 -0.000000 0.000001 -0.000000 -0.000000 0.000001 0.000000 -0.000000 0.000001 0.000000 -0.000000 0.000001 -0.000000 -0.000000 0.000001 -0.000000 -0.000000 0.000001 0.000000 -0.000000 0.000001 0.000000 -0.000000 0.000001 -0.000000 -0.000000 0.000001 -0.000000 0.000000 0.000000 -0.000000 0.000000 0.000000 -0.000000 0.000000 0.000000 -0.000000 
3.764549 72.550171 62.502636 -5.232124 -14.294135 -0.702533 -0.000000 -0.000000 -0.000000 -15.119298 8.476958 17.739796 32.485650 -36.773032 -1.498672 5.598923 -4.407106 -1.821855 -0.000001 -0.000002 0.000001 0.000001 0.000000 0.000000 -15.058388 -9.166295 -5.531943 40.398407 12.222694 1.860979 -0.108216 -0.527063 -4.785721 0.000000 0.000000 0.000001 -0.000000 0.000001 -0.000000 9.242122 0.885876 1.076235 -4.130028 1.271998 -0.238950 -4.081768 1.183422 -0.284670 2.287251 8.760148 5.108016 1.500601 5.371406 -3.836229 -0.000000 0.000000 -0.000000 -0.000000 0.000000 -0.000000 -0.000000 0.000000 -0.000000 -0.000000 0.000000 -0.000000 -0.000000 0.000000 0.000000 -0.000000 0.000000 -0.000000 -0.000000 0.000000 0.000000 -0.000000 0.000000 -0.000000 -0.000000 0.000000 -0.000000 2.066144 -5.257695 -1.124963 1.096605 5.176588 -76.715865 9.133645 -10.577307 0.370116 -12.402942 -1.093040 -0.545639 13.658632 -2.838570 15.849463 -8.354779 19.411288 -6.793914 -0.000000 -0.000000 0.000001 1.931999 1.924611 2.315011 -2.037521 2.276771 -8.355180 0.000001 0.000002 0.000000 -1.990106 5.288391 -7.001244 0.155234 4.773761 -20.664824 -0.000001 0.000000 0.000001 -4.554485 10.305164 -5.585032 3.683936 3.888063 -28.037969 -0.000001 -0.000000 -0.000002 -5.682025 11.748322 -16.002717 10.006049 2.602057 -28.274516 -0.000000 -0.000001 -0.000001 0.000001 -0.000000 0.000001 2.140520 4.596557 2.855885 0.301049 -2.202879 71.172770 1.460625 18.560809 -1.415738 -0.751258 4.509541 -3.080356 14.698133 1.108616 -14.995078 -4.829984 -26.327664 6.964498 -0.000001 -0.000001 0.000000 2.205257 -3.327536 8.267212 -2.116587 -2.382550 18.632696 -0.000000 0.000001 -0.000003 -1.997843 -5.536213 15.318461 0.214276 -4.978455 28.780850 0.000001 0.000001 0.000001 -4.823512 -10.163716 12.802147 3.898921 -4.003944 35.277070 -0.000001 -0.000002 -0.000005 -6.185462 -11.449453 23.480025 10.476024 -2.596057 35.284627 -0.000002 -0.000001 0.000000 -0.000001 -0.000000 -0.000001 0.000000 -0.000001 -0.000000 0.000000 0.000000 -0.000000 0.000000 -0.000001 -0.000000 0.000000 -0.000001 -0.000000 0.000000 -0.000001 -0.000000 0.000000 0.000000 -0.000000 0.000000 -0.000001 -0.000000 0.000000 -0.000001 -0.000000 0.000000 -0.000001 -0.000000 0.000000 0.000000 -0.000000 -0.000000 -0.000000 -0.000000 -0.000000 -0.000000 -0.000000 -0.000000 -0.000000 -0.000000 
4.406158 72.556198 63.045162 -5.192542 -17.330056 -0.925319 -0.000000 0.000001 0.000000 -13.687626 10.081954 17.840767 31.942203 -36.878517 -1.951033 3.798899 -4.189681 -1.004417 0.000000 -0.000001 0.000001 0.000000 0.000000 -0.000000 -15.181096 -7.007779 -5.864620 40.163442 15.035526 2.180820 0.104850 -1.968032 -4.465263 0.000001 0.000000 -0.000000 0.000000 0.000001 -0.000000 8.975837 1.220319 2.219552 -3.977897 1.411652 -0.586921 -3.934765 1.335167 -0.645072 2.522042 9.683851 5.049239 1.527634 5.984096 -3.937941 -0.000000 0.000000 -0.000000 -0.000000 0.000000 -0.000000 -0.000000 0.000000 -0.000000 -0.000000 0.000000 -0.000000 -0.000000 0.000000 -0.000000 -0.000000 0.000000 -0.000000 -0.000000 0.000000 -0.000000 -0.000000 0.000000 -0.000000 -0.000000 0.000000 -0.000000 2.116634 -5.380125 -1.413937 1.338006 5.163953 -76.636252 9.456214 -10.778937 0.583337 -12.148539 -0.392262 -0.890721 13.540606 -3.158311 15.756435 -8.390248 19.241836 -6.779576 0.000000 0.000001 0.000002 1.917817 1.892764 2.537613 -2.030641 2.268416 -8.156888 0.000003 0.000000 -0.000000 -1.987889 5.268044 -6.662368 0.151485 4.756893 -20.341943 0.000001 0.000001 0.000001 -4.533683 10.318044 -5.220267 3.667623 3.877857 -27.671646 -0.000001 0.000000 0.000002 -5.643506 11.775675 -15.635167 9.968935 2.599444 -27.944672 -0.000003 -0.000002 0.000003 0.000001 -0.000001 0.000001 2.242713 4.972367 2.438771 0.536085 -2.648541 71.306246 0.168515 17.908496 -1.194479 -0.732472 4.639662 -3.661273 14.668880 1.397680 -14.958833 -4.983868 -26.108359 6.962661 0.000001 0.000000 0.000001 2.209244 -3.334698 7.874921 -2.117233 -2.383682 18.236438 -0.000002 -0.000001 0.000000 -1.997499 -5.539225 14.882852 0.215219 -4.980509 28.342674 0.000001 0.000001 -0.000001 -4.827214 -10.162325 12.359048 3.901408 -4.004539 34.834276 -0.000002 -0.000002 -0.000004 -6.192130 -11.445899 23.080299 10.481353 -2.594776 34.878959 -0.000001 -0.000000 -0.000005 0.000001 -0.000001 -0.000002 0.000000 -0.000001 -0.000000 -0.000000 -0.000001 -0.000000 0.000000 -0.000001 -0.000000 0.000000 -0.000001 -0.000000 0.000000 -0.000001 -0.000000 -0.000000 -0.000001 -0.000000 0.000000 -0.000001 -0.000000 0.000000 -0.000001 -0.000000 0.000000 -0.000001 -0.000000 -0.000000 -0.000001 -0.000000 -0.000000 0.000001 0.000000 -0.000000 0.000001 0.000000 -0.000000 0.000001 0.000000 
5.059402 72.626671 63.553623 -5.109334 -20.361134 -1.045783 0.000001 0.000000 0.000000 -12.288424 11.171894 17.551402 31.149607 -36.058467 -2.725466 2.722898 -3.993745 -0.083353 0.000002 0.000001 -0.000001 -0.000001 0.000000 -0.000000 -15.259527 -4.132993 -5.860349 39.742193 16.330629 2.206237 0.463666 -2.666925 -3.669656 0.000001 0.000000 -0.000000 0.000002 -0.000002 -0.000002 8.738494 1.625020 3.206202 -3.844506 1.570990 -0.845148 -3.804591 1.513029 -0.917674 2.749881 10.548597 4.815756 1.449867 6.468733 -3.920837 0.000000 -0.000000 0.000000 0.000000 -0.000000 0.000000 0.000000 -0.000000 0.000000 0.000000 -0.000000 0.000000 0.000000 -0.000000 0.000000 0.000000 -0.000000 0.000000 0.000000 -0.000000 0.000000 0.000000 -0.000000 0.000000 0.000000 -0.000000 0.000000 2.160020 -5.244232 -1.784392 1.334696 4.710106 -76.539701 10.017661 -11.079737 0.732904 -11.883723 -0.681989 -0.892412 13.435863 -3.440913 15.672977 -8.421632 19.091945 -6.766855 -0.000002 0.000002 0.000001 1.905436 1.864454 2.734493 -2.024479 2.261163 -7.981465 0.000002 -0.000000 -0.000002 -1.985795 5.250027 -6.362606 0.148608 4.741916 -20.056430 0.000000 0.000000 0.000001 -4.515414 10.329631 -4.897639 3.653263 3.868684 -27.347628 0.000001 -0.000000 -0.000001 -5.609719 11.800269 -15.310026 9.936096 2.596991 -27.652972 -0.000002 -0.000001 -0.000001 0.000001 -0.000001 0.000000 2.378509 5.467688 1.689654 1.045502 -3.399488 71.758063 -0.411165 17.332759 -1.262852 -0.671610 4.549597 -4.686270 14.642671 1.653320 -14.926677 -5.119674 -25.914330 6.961649 0.000000 0.000000 -0.000000 2.212473 -3.341136 7.527910 -2.117963 -2.384660 17.885909 -0.000000 0.000001 -0.000001 -1.997086 -5.541864 14.497526 0.216031 -4.982334 27.955134 0.000001 -0.000001 -0.000001 -4.830472 -10.161219 11.967103 3.903467 -4.005123 34.442581 -0.000001 -0.000001 -0.000001 -6.199395 -11.442632 22.726503 10.486091 -2.593932 34.520138 -0.000000 -0.000001 0.000002 0.000000 -0.000000 -0.000002 -0.000000 0.000003 -0.000000 -0.000000 0.000002 0.000000 -0.000000 0.000003 -0.000000 -0.000000 0.000003 -0.000000 -0.000000 0.000003 -0.000000 -0.000000 0.000002 0.000000 -0.000000 0.000003 -0.000000 -0.000000 0.000003 -0.000000 -0.000000 0.000003 -0.000000 -0.000000 0.000002 0.000000 0.000001 0.000000 0.000000 0.000001 0.000000 0.000000 0.000001 0.000000 0.000000 
